<svg xmlns="http://www.w3.org/2000/svg" xmlns:xlink="http://www.w3.org/1999/xlink">
  <defs>
    <symbol viewBox="0 0 15 15" id="reset" height="100%" width="100%">
        <path d="M4.85355 2.14645C5.04882 2.34171 5.04882 2.65829 4.85355 2.85355L3.70711 4H9C11.4853 4 13.5 6.01472 13.5 8.5C13.5 10.9853 11.4853 13 9 13H5C4.72386 13 4.5 12.7761 4.5 12.5C4.5 12.2239 4.72386 12 5 12H9C10.933 12 12.5 10.433 12.5 8.5C12.5 6.567 10.933 5 9 5H3.70711L4.85355 6.14645C5.04882 6.34171 5.04882 6.65829 4.85355 6.85355C4.65829 7.04882 4.34171 7.04882 4.14645 6.85355L2.14645 4.85355C1.95118 4.65829 1.95118 4.34171 2.14645 4.14645L4.14645 2.14645C4.34171 1.95118 4.65829 1.95118 4.85355 2.14645Z" fill="currentColor" fill-rule="evenodd" clip-rule="evenodd"></path>
    </symbol>
    <symbol viewBox="0 0 15 15" id="redo" height="100%" width="100%">
        <path d="M1.84998 7.49998C1.84998 4.66458 4.05979 1.84998 7.49998 1.84998C10.2783 1.84998 11.6515 3.9064 12.2367 5H10.5C10.2239 5 10 5.22386 10 5.5C10 5.77614 10.2239 6 10.5 6H13.5C13.7761 6 14 5.77614 14 5.5V2.5C14 2.22386 13.7761 2 13.5 2C13.2239 2 13 2.22386 13 2.5V4.31318C12.2955 3.07126 10.6659 0.849976 7.49998 0.849976C3.43716 0.849976 0.849976 4.18537 0.849976 7.49998C0.849976 10.8146 3.43716 14.15 7.49998 14.15C9.44382 14.15 11.0622 13.3808 12.2145 12.2084C12.8315 11.5806 13.3133 10.839 13.6418 10.0407C13.7469 9.78536 13.6251 9.49315 13.3698 9.38806C13.1144 9.28296 12.8222 9.40478 12.7171 9.66014C12.4363 10.3425 12.0251 10.9745 11.5013 11.5074C10.5295 12.4963 9.16504 13.15 7.49998 13.15C4.05979 13.15 1.84998 10.3354 1.84998 7.49998Z" fill="currentColor" fill-rule="evenodd" clip-rule="evenodd"></path>
    </symbol>
    <symbol viewBox="0 0 15 15" id="caret-up" height="100%" width="100%">
        <path d="M4.18179 8.81819C4.00605 8.64245 4.00605 8.35753 4.18179 8.18179L7.18179 5.18179C7.26618 5.0974 7.38064 5.04999 7.49999 5.04999C7.61933 5.04999 7.73379 5.0974 7.81819 5.18179L10.8182 8.18179C10.9939 8.35753 10.9939 8.64245 10.8182 8.81819C10.6424 8.99392 10.3575 8.99392 10.1818 8.81819L7.49999 6.13638L4.81819 8.81819C4.64245 8.99392 4.35753 8.99392 4.18179 8.81819Z" fill="currentColor" fill-rule="evenodd" clip-rule="evenodd"></path>
    </symbol>
    <symbol viewBox="0 0 15 15" id="caret-down" height="100%" width="100%">
        <path d="M4.18179 6.18181C4.35753 6.00608 4.64245 6.00608 4.81819 6.18181L7.49999 8.86362L10.1818 6.18181C10.3575 6.00608 10.6424 6.00608 10.8182 6.18181C10.9939 6.35755 10.9939 6.64247 10.8182 6.81821L7.81819 9.81821C7.73379 9.9026 7.61934 9.95001 7.49999 9.95001C7.38064 9.95001 7.26618 9.9026 7.18179 9.81821L4.18179 6.81821C4.00605 6.64247 4.00605 6.35755 4.18179 6.18181Z" fill="currentColor" fill-rule="evenodd" clip-rule="evenodd"></path>
    </symbol>
    <symbol viewBox="0 0 15 15" id="italic" height="100%" width="100%">
        <path d="M5.67494 3.50017C5.67494 3.25164 5.87641 3.05017 6.12494 3.05017H10.6249C10.8735 3.05017 11.0749 3.25164 11.0749 3.50017C11.0749 3.7487 10.8735 3.95017 10.6249 3.95017H9.00587L7.2309 11.05H8.87493C9.12345 11.05 9.32493 11.2515 9.32493 11.5C9.32493 11.7486 9.12345 11.95 8.87493 11.95H4.37493C4.1264 11.95 3.92493 11.7486 3.92493 11.5C3.92493 11.2515 4.1264 11.05 4.37493 11.05H5.99397L7.76894 3.95017H6.12494C5.87641 3.95017 5.67494 3.7487 5.67494 3.50017Z" fill="currentColor" fill-rule="evenodd" clip-rule="evenodd"></path>
    </symbol>
    <symbol viewBox="0 0 15 15" id="bold" height="100%" width="100%">
        <path d="M5.10505 12C4.70805 12 4.4236 11.912 4.25171 11.736C4.0839 11.5559 4 11.2715 4 10.8827V4.11733C4 3.72033 4.08595 3.43588 4.25784 3.26398C4.43383 3.08799 4.71623 3 5.10505 3C6.42741 3 8.25591 3 9.02852 3C10.1373 3 11.0539 3.98153 11.0539 5.1846C11.0539 6.08501 10.6037 6.81855 9.70327 7.23602C10.8657 7.44851 11.5176 8.62787 11.5176 9.48128C11.5176 10.5125 10.9902 12 9.27734 12C8.77742 12 6.42626 12 5.10505 12ZM8.37891 8.00341H5.8V10.631H8.37891C8.9 10.631 9.6296 10.1211 9.6296 9.29877C9.6296 8.47643 8.9 8.00341 8.37891 8.00341ZM5.8 4.36903V6.69577H8.17969C8.53906 6.69577 9.27734 6.35939 9.27734 5.50002C9.27734 4.64064 8.48047 4.36903 8.17969 4.36903H5.8Z" fill="currentColor"></path>
    </symbol>
    <symbol viewBox="0 0 15 15" id="paragraph" height="100%" width="100%">
        <path d="M3 5.5C3 7.983 4.99169 9 7 9V12.5C7 12.7761 7.22386 13 7.5 13C7.77614 13 8 12.7761 8 12.5V9V3.1H9V12.5C9 12.7761 9.22386 13 9.5 13C9.77614 13 10 12.7761 10 12.5V3.1H11.5C11.8038 3.1 12.05 2.85376 12.05 2.55C12.05 2.24624 11.8038 2 11.5 2H9.5H8H7.5H7C4.99169 2 3 3.017 3 5.5Z" fill="currentColor" fill-rule="evenodd" clip-rule="evenodd"></path>
    </symbol>
    <symbol viewBox="0 0 15 15" id="heading" height="100%" width="100%">
        <path d="M8.75432 2.0502C8.50579 2.0502 8.30432 2.25167 8.30432 2.5002C8.30432 2.74873 8.50579 2.9502 8.75432 2.9502H9.94997V7.05004H5.04997V2.9502H6.25432C6.50285 2.9502 6.70432 2.74873 6.70432 2.5002C6.70432 2.25167 6.50285 2.0502 6.25432 2.0502H2.75432C2.50579 2.0502 2.30432 2.25167 2.30432 2.5002C2.30432 2.74873 2.50579 2.9502 2.75432 2.9502H3.94997V12.0502H2.75432C2.50579 12.0502 2.30432 12.2517 2.30432 12.5002C2.30432 12.7487 2.50579 12.9502 2.75432 12.9502H6.25432C6.50285 12.9502 6.70432 12.7487 6.70432 12.5002C6.70432 12.2517 6.50285 12.0502 6.25432 12.0502H5.04997V7.95004H9.94997V12.0502H8.75432C8.50579 12.0502 8.30432 12.2517 8.30432 12.5002C8.30432 12.7487 8.50579 12.9502 8.75432 12.9502H12.2543C12.5028 12.9502 12.7043 12.7487 12.7043 12.5002C12.7043 12.2517 12.5028 12.0502 12.2543 12.0502H11.05V2.9502H12.2543C12.5028 2.9502 12.7043 2.74873 12.7043 2.5002C12.7043 2.25167 12.5028 2.0502 12.2543 2.0502H8.75432Z" fill="currentColor" fill-rule="evenodd" clip-rule="evenodd"></path>
    </symbol>
    <symbol viewBox="0 0 15 15" id="list-bullet" height="100%" width="100%">
        <path d="M1.5 5.25C1.91421 5.25 2.25 4.91421 2.25 4.5C2.25 4.08579 1.91421 3.75 1.5 3.75C1.08579 3.75 0.75 4.08579 0.75 4.5C0.75 4.91421 1.08579 5.25 1.5 5.25ZM4 4.5C4 4.22386 4.22386 4 4.5 4H13.5C13.7761 4 14 4.22386 14 4.5C14 4.77614 13.7761 5 13.5 5H4.5C4.22386 5 4 4.77614 4 4.5ZM4.5 7C4.22386 7 4 7.22386 4 7.5C4 7.77614 4.22386 8 4.5 8H13.5C13.7761 8 14 7.77614 14 7.5C14 7.22386 13.7761 7 13.5 7H4.5ZM4.5 10C4.22386 10 4 10.2239 4 10.5C4 10.7761 4.22386 11 4.5 11H13.5C13.7761 11 14 10.7761 14 10.5C14 10.2239 13.7761 10 13.5 10H4.5ZM2.25 7.5C2.25 7.91421 1.91421 8.25 1.5 8.25C1.08579 8.25 0.75 7.91421 0.75 7.5C0.75 7.08579 1.08579 6.75 1.5 6.75C1.91421 6.75 2.25 7.08579 2.25 7.5ZM1.5 11.25C1.91421 11.25 2.25 10.9142 2.25 10.5C2.25 10.0858 1.91421 9.75 1.5 9.75C1.08579 9.75 0.75 10.0858 0.75 10.5C0.75 10.9142 1.08579 11.25 1.5 11.25Z" fill="currentColor" fill-rule="evenodd" clip-rule="evenodd"></path>
    </symbol>
    <symbol viewBox="0 0 15 15" id="quote" height="100%" width="100%">
        <path d="M9.42503 3.44136C10.0561 3.23654 10.7837 3.2402 11.3792 3.54623C12.7532 4.25224 13.3477 6.07191 12.7946 8C12.5465 8.8649 12.1102 9.70472 11.1861 10.5524C10.262 11.4 8.98034 11.9 8.38571 11.9C8.17269 11.9 8 11.7321 8 11.525C8 11.3179 8.17644 11.15 8.38571 11.15C9.06497 11.15 9.67189 10.7804 10.3906 10.236C10.9406 9.8193 11.3701 9.28633 11.608 8.82191C12.0628 7.93367 12.0782 6.68174 11.3433 6.34901C10.9904 6.73455 10.5295 6.95946 9.97725 6.95946C8.7773 6.95946 8.0701 5.99412 8.10051 5.12009C8.12957 4.28474 8.66032 3.68954 9.42503 3.44136ZM3.42503 3.44136C4.05614 3.23654 4.78366 3.2402 5.37923 3.54623C6.7532 4.25224 7.34766 6.07191 6.79462 8C6.54654 8.8649 6.11019 9.70472 5.1861 10.5524C4.26201 11.4 2.98034 11.9 2.38571 11.9C2.17269 11.9 2 11.7321 2 11.525C2 11.3179 2.17644 11.15 2.38571 11.15C3.06497 11.15 3.67189 10.7804 4.39058 10.236C4.94065 9.8193 5.37014 9.28633 5.60797 8.82191C6.06282 7.93367 6.07821 6.68174 5.3433 6.34901C4.99037 6.73455 4.52948 6.95946 3.97725 6.95946C2.7773 6.95946 2.0701 5.99412 2.10051 5.12009C2.12957 4.28474 2.66032 3.68954 3.42503 3.44136Z" fill="currentColor" fill-rule="evenodd" clip-rule="evenodd"></path>
    </symbol>
    <symbol viewBox="0 0 15 15" id="code" height="100%" width="100%">
        <path d="M9.96424 2.68571C10.0668 2.42931 9.94209 2.13833 9.6857 2.03577C9.4293 1.93322 9.13832 2.05792 9.03576 2.31432L5.03576 12.3143C4.9332 12.5707 5.05791 12.8617 5.3143 12.9642C5.5707 13.0668 5.86168 12.9421 5.96424 12.6857L9.96424 2.68571ZM3.85355 5.14646C4.04882 5.34172 4.04882 5.6583 3.85355 5.85356L2.20711 7.50001L3.85355 9.14646C4.04882 9.34172 4.04882 9.6583 3.85355 9.85356C3.65829 10.0488 3.34171 10.0488 3.14645 9.85356L1.14645 7.85356C0.951184 7.6583 0.951184 7.34172 1.14645 7.14646L3.14645 5.14646C3.34171 4.9512 3.65829 4.9512 3.85355 5.14646ZM11.1464 5.14646C11.3417 4.9512 11.6583 4.9512 11.8536 5.14646L13.8536 7.14646C14.0488 7.34172 14.0488 7.6583 13.8536 7.85356L11.8536 9.85356C11.6583 10.0488 11.3417 10.0488 11.1464 9.85356C10.9512 9.6583 10.9512 9.34172 11.1464 9.14646L12.7929 7.50001L11.1464 5.85356C10.9512 5.6583 10.9512 5.34172 11.1464 5.14646Z" fill="currentColor" fill-rule="evenodd" clip-rule="evenodd"></path>
    </symbol>
    <symbol viewBox="0 0 15 15" id="link" height="100%" width="100%">
        <path d="M4.62471 4.00001L4.56402 4.00001C4.04134 3.99993 3.70687 3.99988 3.4182 4.055C2.2379 4.28039 1.29846 5.17053 1.05815 6.33035C0.999538 6.61321 0.999604 6.93998 0.999703 7.43689L0.999711 7.50001L0.999703 7.56313C0.999604 8.06004 0.999538 8.38681 1.05815 8.66967C1.29846 9.8295 2.2379 10.7196 3.4182 10.945C3.70688 11.0001 4.04135 11.0001 4.56403 11L4.62471 11H5.49971C5.77585 11 5.99971 10.7762 5.99971 10.5C5.99971 10.2239 5.77585 10 5.49971 10H4.62471C4.02084 10 3.78907 9.99777 3.60577 9.96277C2.80262 9.8094 2.19157 9.21108 2.03735 8.46678C2.00233 8.29778 1.99971 8.08251 1.99971 7.50001C1.99971 6.91752 2.00233 6.70225 2.03735 6.53324C2.19157 5.78895 2.80262 5.19062 3.60577 5.03725C3.78907 5.00225 4.02084 5.00001 4.62471 5.00001H5.49971C5.77585 5.00001 5.99971 4.77615 5.99971 4.50001C5.99971 4.22387 5.77585 4.00001 5.49971 4.00001H4.62471ZM10.3747 5.00001C10.9786 5.00001 11.2104 5.00225 11.3937 5.03725C12.1968 5.19062 12.8079 5.78895 12.9621 6.53324C12.9971 6.70225 12.9997 6.91752 12.9997 7.50001C12.9997 8.08251 12.9971 8.29778 12.9621 8.46678C12.8079 9.21108 12.1968 9.8094 11.3937 9.96277C11.2104 9.99777 10.9786 10 10.3747 10H9.49971C9.22357 10 8.99971 10.2239 8.99971 10.5C8.99971 10.7762 9.22357 11 9.49971 11H10.3747L10.4354 11C10.9581 11.0001 11.2925 11.0001 11.5812 10.945C12.7615 10.7196 13.701 9.8295 13.9413 8.66967C13.9999 8.38681 13.9998 8.06005 13.9997 7.56314L13.9997 7.50001L13.9997 7.43688C13.9998 6.93998 13.9999 6.61321 13.9413 6.33035C13.701 5.17053 12.7615 4.28039 11.5812 4.055C11.2925 3.99988 10.9581 3.99993 10.4354 4.00001L10.3747 4.00001H9.49971C9.22357 4.00001 8.99971 4.22387 8.99971 4.50001C8.99971 4.77615 9.22357 5.00001 9.49971 5.00001H10.3747ZM5.00038 7C4.72424 7 4.50038 7.22386 4.50038 7.5C4.50038 7.77614 4.72424 8 5.00038 8H10.0004C10.2765 8 10.5004 7.77614 10.5004 7.5C10.5004 7.22386 10.2765 7 10.0004 7H5.00038Z" fill="currentColor" fill-rule="evenodd" clip-rule="evenodd"></path>
    </symbol>
    <symbol viewBox="0 0 15 15" id="pencil" height="100%" width="100%">
        <path d="M11.8536 1.14645C11.6583 0.951184 11.3417 0.951184 11.1465 1.14645L3.71455 8.57836C3.62459 8.66832 3.55263 8.77461 3.50251 8.89155L2.04044 12.303C1.9599 12.491 2.00189 12.709 2.14646 12.8536C2.29103 12.9981 2.50905 13.0401 2.69697 12.9596L6.10847 11.4975C6.2254 11.4474 6.3317 11.3754 6.42166 11.2855L13.8536 3.85355C14.0488 3.65829 14.0488 3.34171 13.8536 3.14645L11.8536 1.14645ZM4.42166 9.28547L11.5 2.20711L12.7929 3.5L5.71455 10.5784L4.21924 11.2192L3.78081 10.7808L4.42166 9.28547Z" fill="currentColor" fill-rule="evenodd" clip-rule="evenodd"></path>
    </symbol>
    <symbol viewBox="0 0 15 15" id="heart" height="100%" width="100%">
        <path d="M4.89346 2.35248C3.49195 2.35248 2.35248 3.49359 2.35248 4.90532C2.35248 6.38164 3.20954 7.9168 4.37255 9.33522C5.39396 10.581 6.59464 11.6702 7.50002 12.4778C8.4054 11.6702 9.60608 10.581 10.6275 9.33522C11.7905 7.9168 12.6476 6.38164 12.6476 4.90532C12.6476 3.49359 11.5081 2.35248 10.1066 2.35248C9.27059 2.35248 8.81894 2.64323 8.5397 2.95843C8.27877 3.25295 8.14623 3.58566 8.02501 3.88993C8.00391 3.9429 7.98315 3.99501 7.96211 4.04591C7.88482 4.23294 7.7024 4.35494 7.50002 4.35494C7.29765 4.35494 7.11523 4.23295 7.03793 4.04592C7.01689 3.99501 6.99612 3.94289 6.97502 3.8899C6.8538 3.58564 6.72126 3.25294 6.46034 2.95843C6.18109 2.64323 5.72945 2.35248 4.89346 2.35248ZM1.35248 4.90532C1.35248 2.94498 2.936 1.35248 4.89346 1.35248C6.0084 1.35248 6.73504 1.76049 7.20884 2.2953C7.32062 2.42147 7.41686 2.55382 7.50002 2.68545C7.58318 2.55382 7.67941 2.42147 7.79119 2.2953C8.265 1.76049 8.99164 1.35248 10.1066 1.35248C12.064 1.35248 13.6476 2.94498 13.6476 4.90532C13.6476 6.74041 12.6013 8.50508 11.4008 9.96927C10.2636 11.3562 8.92194 12.5508 8.00601 13.3664C7.94645 13.4194 7.88869 13.4709 7.83291 13.5206C7.64324 13.6899 7.3568 13.6899 7.16713 13.5206C7.11135 13.4709 7.05359 13.4194 6.99403 13.3664C6.0781 12.5508 4.73641 11.3562 3.59926 9.96927C2.39872 8.50508 1.35248 6.74041 1.35248 4.90532Z" fill="currentColor" fill-rule="evenodd" clip-rule="evenodd"></path>
    </symbol>
    <symbol viewBox="0 0 15 15" id="heart-filled" height="100%" width="100%">
        <path d="M1.35248 4.90532C1.35248 2.94498 2.936 1.35248 4.89346 1.35248C6.25769 1.35248 6.86058 1.92336 7.50002 2.93545C8.13946 1.92336 8.74235 1.35248 10.1066 1.35248C12.064 1.35248 13.6476 2.94498 13.6476 4.90532C13.6476 6.74041 12.6013 8.50508 11.4008 9.96927C10.2636 11.3562 8.92194 12.5508 8.00601 13.3664C7.94645 13.4194 7.88869 13.4709 7.83291 13.5206C7.64324 13.6899 7.3568 13.6899 7.16713 13.5206C7.11135 13.4709 7.05359 13.4194 6.99403 13.3664C6.0781 12.5508 4.73641 11.3562 3.59926 9.96927C2.39872 8.50508 1.35248 6.74041 1.35248 4.90532Z" fill="currentColor" fill-rule="evenodd" clip-rule="evenodd"></path>
    </symbol>



    <symbol viewBox="0 0 512 512" id="fa-list-ul" height="100%" width="100%">
        <path d="M64 144a48 48 0 1 0 0-96 48 48 0 1 0 0 96zM192 64c-17.7 0-32 14.3-32 32s14.3 32 32 32H480c17.7 0 32-14.3 32-32s-14.3-32-32-32H192zm0 160c-17.7 0-32 14.3-32 32s14.3 32 32 32H480c17.7 0 32-14.3 32-32s-14.3-32-32-32H192zm0 160c-17.7 0-32 14.3-32 32s14.3 32 32 32H480c17.7 0 32-14.3 32-32s-14.3-32-32-32H192zM64 464a48 48 0 1 0 0-96 48 48 0 1 0 0 96zm48-208a48 48 0 1 0 -96 0 48 48 0 1 0 96 0z"/>
    </symbol>
    <symbol viewBox="0 0 512 512" id="fa-list-ol" height="100%" width="100%">
        <path d="M24 56c0-13.3 10.7-24 24-24H80c13.3 0 24 10.7 24 24V176h16c13.3 0 24 10.7 24 24s-10.7 24-24 24H40c-13.3 0-24-10.7-24-24s10.7-24 24-24H56V80H48C34.7 80 24 69.3 24 56zM86.7 341.2c-6.5-7.4-18.3-6.9-24 1.2L51.5 357.9c-7.7 10.8-22.7 13.3-33.5 5.6s-13.3-22.7-5.6-33.5l11.1-15.6c23.7-33.2 72.3-35.6 99.2-4.9c21.3 24.4 20.8 60.9-1.1 84.7L86.8 432H120c13.3 0 24 10.7 24 24s-10.7 24-24 24H32c-9.5 0-18.2-5.6-22-14.4s-2.1-18.9 4.3-25.9l72-78c5.3-5.8 5.4-14.6 .3-20.5zM224 64H480c17.7 0 32 14.3 32 32s-14.3 32-32 32H224c-17.7 0-32-14.3-32-32s14.3-32 32-32zm0 160H480c17.7 0 32 14.3 32 32s-14.3 32-32 32H224c-17.7 0-32-14.3-32-32s14.3-32 32-32zm0 160H480c17.7 0 32 14.3 32 32s-14.3 32-32 32H224c-17.7 0-32-14.3-32-32s14.3-32 32-32z"/>
    </symbol>
    <symbol viewBox="0 0 512 512" id="fa-h" height="100%" width="100%">
        <path d="M320 256l0 192c0 17.7 14.3 32 32 32s32-14.3 32-32l0-224V64c0-17.7-14.3-32-32-32s-32 14.3-32 32V192L64 192 64 64c0-17.7-14.3-32-32-32S0 46.3 0 64V448c0 17.7 14.3 32 32 32s32-14.3 32-32l0-192 256 0z"/>
    </symbol>
    <symbol viewBox="0 0 512 512" id="fa-1" height="100%" width="100%">
        <path d="M160 64c0-11.8-6.5-22.6-16.9-28.2s-23-5-32.8 1.6l-96 64C-.5 111.2-4.4 131 5.4 145.8s29.7 18.7 44.4 8.9L96 123.8V416H32c-17.7 0-32 14.3-32 32s14.3 32 32 32h96 96c17.7 0 32-14.3 32-32s-14.3-32-32-32H160V64z"/>
    </symbol>
    <symbol viewBox="0 0 512 512" id="fa-2" height="100%" width="100%">
        <path d="M142.9 96c-21.5 0-42.2 8.5-57.4 23.8L54.6 150.6c-12.5 12.5-32.8 12.5-45.3 0s-12.5-32.8 0-45.3L40.2 74.5C67.5 47.3 104.4 32 142.9 32C223 32 288 97 288 177.1c0 38.5-15.3 75.4-42.5 102.6L109.3 416H288c17.7 0 32 14.3 32 32s-14.3 32-32 32H32c-12.9 0-24.6-7.8-29.6-19.8s-2.2-25.7 6.9-34.9L200.2 234.5c15.2-15.2 23.8-35.9 23.8-57.4c0-44.8-36.3-81.1-81.1-81.1z"/>
    </symbol>
    <symbol viewBox="0 0 512 512" id="fa-3" height="100%" width="100%">
        <path d="M0 64C0 46.3 14.3 32 32 32H272c13.2 0 25 8.1 29.8 20.4s1.5 26.3-8.2 35.2L162.3 208H184c75.1 0 136 60.9 136 136s-60.9 136-136 136H105.4C63 480 24.2 456 5.3 418.1l-1.9-3.8c-7.9-15.8-1.5-35 14.3-42.9s35-1.5 42.9 14.3l1.9 3.8c8.1 16.3 24.8 26.5 42.9 26.5H184c39.8 0 72-32.2 72-72s-32.2-72-72-72H80c-13.2 0-25-8.1-29.8-20.4s-1.5-26.3 8.2-35.2L189.7 96H32C14.3 96 0 81.7 0 64z"/>
    </symbol>
    <symbol viewBox="0 0 16 16" id="heading-1" height="100%" width="100%">
      <path d="M7.648 13V3H6.3v4.234H1.348V3H0v10h1.348V8.421H6.3V13zM14 13V3h-1.333l-2.381 1.766V6.12L12.6 4.443h.066V13z"/>
    </symbol>
    <symbol viewBox="0 0 16 16" id="heading-2" height="100%" width="100%">
      <path d="M7.495 13V3.201H6.174v4.15H1.32V3.2H0V13h1.32V8.513h4.854V13zm3.174-7.071v-.05c0-.934.66-1.752 1.801-1.752 1.005 0 1.76.639 1.76 1.651 0 .898-.582 1.58-1.12 2.19l-3.69 4.2V13h6.331v-1.149h-4.458v-.079L13.9 8.786c.919-1.048 1.666-1.874 1.666-3.101C15.565 4.149 14.35 3 12.499 3 10.46 3 9.384 4.393 9.384 5.879v.05z"/>
    </symbol>
    <symbol viewBox="0 0 16 16" id="heading-3" height="100%" width="100%">
      <path d="M11.07 8.4h1.049c1.174 0 1.99.69 2.004 1.724s-.802 1.786-2.068 1.779c-1.11-.007-1.905-.605-1.99-1.357h-1.21C8.926 11.91 10.116 13 12.028 13c1.99 0 3.439-1.188 3.404-2.87-.028-1.553-1.287-2.221-2.096-2.313v-.07c.724-.127 1.814-.935 1.772-2.293-.035-1.392-1.21-2.468-3.038-2.454-1.927.007-2.94 1.196-2.981 2.426h1.23c.064-.71.732-1.336 1.744-1.336 1.027 0 1.744.64 1.744 1.568.007.95-.738 1.639-1.744 1.639h-.991V8.4ZM7.495 13V3.201H6.174v4.15H1.32V3.2H0V13h1.32V8.513h4.854V13z"/>
    </symbol>
    <symbol viewBox="0 0 16 16" id="list-ol" height="100%" width="100%">
      <path d="M1.713 11.865v-.474H2c.217 0 .363-.137.363-.317 0-.185-.158-.31-.361-.31-.223 0-.367.152-.373.31h-.59c.016-.467.373-.787.986-.787.588-.002.954.291.957.703a.595.595 0 0 1-.492.594v.033a.615.615 0 0 1 .569.631c.003.533-.502.8-1.051.8-.656 0-1-.37-1.008-.794h.582c.008.178.186.306.422.309.254 0 .424-.145.422-.35-.002-.195-.155-.348-.414-.348h-.3zm-.004-4.699h-.604v-.035c0-.408.295-.844.958-.844.583 0 .96.326.96.756 0 .389-.257.617-.476.848l-.537.572v.03h1.054V9H1.143v-.395l.957-.99c.138-.142.293-.304.293-.508 0-.18-.147-.32-.342-.32a.33.33 0 0 0-.342.338zM2.564 5h-.635V2.924h-.031l-.598.42v-.567l.629-.443h.635z"/>
    </symbol>
  </defs>
</svg>







