<svg xmlns="http://www.w3.org/2000/svg" xmlns:xlink="http://www.w3.org/1999/xlink">
  <defs>
    <symbol viewBox="0 0 15 15" id="undo" height="100%" width="100%">
        <path d="M4.85355 2.14645C5.04882 2.34171 5.04882 2.65829 4.85355 2.85355L3.70711 4H9C11.4853 4 13.5 6.01472 13.5 8.5C13.5 10.9853 11.4853 13 9 13H5C4.72386 13 4.5 12.7761 4.5 12.5C4.5 12.2239 4.72386 12 5 12H9C10.933 12 12.5 10.433 12.5 8.5C12.5 6.567 10.933 5 9 5H3.70711L4.85355 6.14645C5.04882 6.34171 5.04882 6.65829 4.85355 6.85355C4.65829 7.04882 4.34171 7.04882 4.14645 6.85355L2.14645 4.85355C1.95118 4.65829 1.95118 4.34171 2.14645 4.14645L4.14645 2.14645C4.34171 1.95118 4.65829 1.95118 4.85355 2.14645Z" fill="currentColor" fill-rule="evenodd" clip-rule="evenodd"></path>
    </symbol>
    <symbol viewBox="0 0 15 15" id="redo" height="100%" width="100%">
        <path d="M1.84998 7.49998C1.84998 4.66458 4.05979 1.84998 7.49998 1.84998C10.2783 1.84998 11.6515 3.9064 12.2367 5H10.5C10.2239 5 10 5.22386 10 5.5C10 5.77614 10.2239 6 10.5 6H13.5C13.7761 6 14 5.77614 14 5.5V2.5C14 2.22386 13.7761 2 13.5 2C13.2239 2 13 2.22386 13 2.5V4.31318C12.2955 3.07126 10.6659 0.849976 7.49998 0.849976C3.43716 0.849976 0.849976 4.18537 0.849976 7.49998C0.849976 10.8146 3.43716 14.15 7.49998 14.15C9.44382 14.15 11.0622 13.3808 12.2145 12.2084C12.8315 11.5806 13.3133 10.839 13.6418 10.0407C13.7469 9.78536 13.6251 9.49315 13.3698 9.38806C13.1144 9.28296 12.8222 9.40478 12.7171 9.66014C12.4363 10.3425 12.0251 10.9745 11.5013 11.5074C10.5295 12.4963 9.16504 13.15 7.49998 13.15C4.05979 13.15 1.84998 10.3354 1.84998 7.49998Z" fill="currentColor" fill-rule="evenodd" clip-rule="evenodd"></path>
    </symbol>
    <symbol viewBox="0 0 15 15" id="caret-up" height="100%" width="100%">
        <path d="M4.18179 8.81819C4.00605 8.64245 4.00605 8.35753 4.18179 8.18179L7.18179 5.18179C7.26618 5.0974 7.38064 5.04999 7.49999 5.04999C7.61933 5.04999 7.73379 5.0974 7.81819 5.18179L10.8182 8.18179C10.9939 8.35753 10.9939 8.64245 10.8182 8.81819C10.6424 8.99392 10.3575 8.99392 10.1818 8.81819L7.49999 6.13638L4.81819 8.81819C4.64245 8.99392 4.35753 8.99392 4.18179 8.81819Z" fill="currentColor" fill-rule="evenodd" clip-rule="evenodd"></path>
    </symbol>
    <symbol viewBox="0 0 15 15" id="caret-down" height="100%" width="100%">
        <path d="M4.18179 6.18181C4.35753 6.00608 4.64245 6.00608 4.81819 6.18181L7.49999 8.86362L10.1818 6.18181C10.3575 6.00608 10.6424 6.00608 10.8182 6.18181C10.9939 6.35755 10.9939 6.64247 10.8182 6.81821L7.81819 9.81821C7.73379 9.9026 7.61934 9.95001 7.49999 9.95001C7.38064 9.95001 7.26618 9.9026 7.18179 9.81821L4.18179 6.81821C4.00605 6.64247 4.00605 6.35755 4.18179 6.18181Z" fill="currentColor" fill-rule="evenodd" clip-rule="evenodd"></path>
    </symbol>
    <symbol viewBox="0 0 15 15" id="italic" height="100%" width="100%">
        <path d="M5.67494 3.50017C5.67494 3.25164 5.87641 3.05017 6.12494 3.05017H10.6249C10.8735 3.05017 11.0749 3.25164 11.0749 3.50017C11.0749 3.7487 10.8735 3.95017 10.6249 3.95017H9.00587L7.2309 11.05H8.87493C9.12345 11.05 9.32493 11.2515 9.32493 11.5C9.32493 11.7486 9.12345 11.95 8.87493 11.95H4.37493C4.1264 11.95 3.92493 11.7486 3.92493 11.5C3.92493 11.2515 4.1264 11.05 4.37493 11.05H5.99397L7.76894 3.95017H6.12494C5.87641 3.95017 5.67494 3.7487 5.67494 3.50017Z" fill="currentColor" fill-rule="evenodd" clip-rule="evenodd"></path>
    </symbol>
    <symbol viewBox="0 0 15 15" id="bold" height="100%" width="100%">
        <path d="M5.10505 12C4.70805 12 4.4236 11.912 4.25171 11.736C4.0839 11.5559 4 11.2715 4 10.8827V4.11733C4 3.72033 4.08595 3.43588 4.25784 3.26398C4.43383 3.08799 4.71623 3 5.10505 3C6.42741 3 8.25591 3 9.02852 3C10.1373 3 11.0539 3.98153 11.0539 5.1846C11.0539 6.08501 10.6037 6.81855 9.70327 7.23602C10.8657 7.44851 11.5176 8.62787 11.5176 9.48128C11.5176 10.5125 10.9902 12 9.27734 12C8.77742 12 6.42626 12 5.10505 12ZM8.37891 8.00341H5.8V10.631H8.37891C8.9 10.631 9.6296 10.1211 9.6296 9.29877C9.6296 8.47643 8.9 8.00341 8.37891 8.00341ZM5.8 4.36903V6.69577H8.17969C8.53906 6.69577 9.27734 6.35939 9.27734 5.50002C9.27734 4.64064 8.48047 4.36903 8.17969 4.36903H5.8Z" fill="currentColor"></path>
    </symbol>
  </defs>
</svg>


