<svg xmlns="http://www.w3.org/2000/svg" xmlns:xlink="http://www.w3.org/1999/xlink">
  <defs>
    <symbol viewBox="0 0 15 15" id="reset" height="100%" width="100%">
        <path d="M4.85355 2.14645C5.04882 2.34171 5.04882 2.65829 4.85355 2.85355L3.70711 4H9C11.4853 4 13.5 6.01472 13.5 8.5C13.5 10.9853 11.4853 13 9 13H5C4.72386 13 4.5 12.7761 4.5 12.5C4.5 12.2239 4.72386 12 5 12H9C10.933 12 12.5 10.433 12.5 8.5C12.5 6.567 10.933 5 9 5H3.70711L4.85355 6.14645C5.04882 6.34171 5.04882 6.65829 4.85355 6.85355C4.65829 7.04882 4.34171 7.04882 4.14645 6.85355L2.14645 4.85355C1.95118 4.65829 1.95118 4.34171 2.14645 4.14645L4.14645 2.14645C4.34171 1.95118 4.65829 1.95118 4.85355 2.14645Z" fill="currentColor" fill-rule="evenodd" clip-rule="evenodd"></path>
    </symbol>
    <symbol viewBox="0 0 15 15" id="redo" height="100%" width="100%">
        <path d="M1.84998 7.49998C1.84998 4.66458 4.05979 1.84998 7.49998 1.84998C10.2783 1.84998 11.6515 3.9064 12.2367 5H10.5C10.2239 5 10 5.22386 10 5.5C10 5.77614 10.2239 6 10.5 6H13.5C13.7761 6 14 5.77614 14 5.5V2.5C14 2.22386 13.7761 2 13.5 2C13.2239 2 13 2.22386 13 2.5V4.31318C12.2955 3.07126 10.6659 0.849976 7.49998 0.849976C3.43716 0.849976 0.849976 4.18537 0.849976 7.49998C0.849976 10.8146 3.43716 14.15 7.49998 14.15C9.44382 14.15 11.0622 13.3808 12.2145 12.2084C12.8315 11.5806 13.3133 10.839 13.6418 10.0407C13.7469 9.78536 13.6251 9.49315 13.3698 9.38806C13.1144 9.28296 12.8222 9.40478 12.7171 9.66014C12.4363 10.3425 12.0251 10.9745 11.5013 11.5074C10.5295 12.4963 9.16504 13.15 7.49998 13.15C4.05979 13.15 1.84998 10.3354 1.84998 7.49998Z" fill="currentColor" fill-rule="evenodd" clip-rule="evenodd"></path>
    </symbol>
    <symbol viewBox="0 0 15 15" id="caret-up" height="100%" width="100%">
        <path d="M4.18179 8.81819C4.00605 8.64245 4.00605 8.35753 4.18179 8.18179L7.18179 5.18179C7.26618 5.0974 7.38064 5.04999 7.49999 5.04999C7.61933 5.04999 7.73379 5.0974 7.81819 5.18179L10.8182 8.18179C10.9939 8.35753 10.9939 8.64245 10.8182 8.81819C10.6424 8.99392 10.3575 8.99392 10.1818 8.81819L7.49999 6.13638L4.81819 8.81819C4.64245 8.99392 4.35753 8.99392 4.18179 8.81819Z" fill="currentColor" fill-rule="evenodd" clip-rule="evenodd"></path>
    </symbol>
    <symbol viewBox="0 0 15 15" id="caret-down" height="100%" width="100%">
        <path d="M4.18179 6.18181C4.35753 6.00608 4.64245 6.00608 4.81819 6.18181L7.49999 8.86362L10.1818 6.18181C10.3575 6.00608 10.6424 6.00608 10.8182 6.18181C10.9939 6.35755 10.9939 6.64247 10.8182 6.81821L7.81819 9.81821C7.73379 9.9026 7.61934 9.95001 7.49999 9.95001C7.38064 9.95001 7.26618 9.9026 7.18179 9.81821L4.18179 6.81821C4.00605 6.64247 4.00605 6.35755 4.18179 6.18181Z" fill="currentColor" fill-rule="evenodd" clip-rule="evenodd"></path>
    </symbol>
    <symbol viewBox="0 0 15 15" id="italic" height="100%" width="100%">
        <path d="M5.67494 3.50017C5.67494 3.25164 5.87641 3.05017 6.12494 3.05017H10.6249C10.8735 3.05017 11.0749 3.25164 11.0749 3.50017C11.0749 3.7487 10.8735 3.95017 10.6249 3.95017H9.00587L7.2309 11.05H8.87493C9.12345 11.05 9.32493 11.2515 9.32493 11.5C9.32493 11.7486 9.12345 11.95 8.87493 11.95H4.37493C4.1264 11.95 3.92493 11.7486 3.92493 11.5C3.92493 11.2515 4.1264 11.05 4.37493 11.05H5.99397L7.76894 3.95017H6.12494C5.87641 3.95017 5.67494 3.7487 5.67494 3.50017Z" fill="currentColor" fill-rule="evenodd" clip-rule="evenodd"></path>
    </symbol>
    <symbol viewBox="0 0 15 15" id="bold" height="100%" width="100%">
        <path d="M5.10505 12C4.70805 12 4.4236 11.912 4.25171 11.736C4.0839 11.5559 4 11.2715 4 10.8827V4.11733C4 3.72033 4.08595 3.43588 4.25784 3.26398C4.43383 3.08799 4.71623 3 5.10505 3C6.42741 3 8.25591 3 9.02852 3C10.1373 3 11.0539 3.98153 11.0539 5.1846C11.0539 6.08501 10.6037 6.81855 9.70327 7.23602C10.8657 7.44851 11.5176 8.62787 11.5176 9.48128C11.5176 10.5125 10.9902 12 9.27734 12C8.77742 12 6.42626 12 5.10505 12ZM8.37891 8.00341H5.8V10.631H8.37891C8.9 10.631 9.6296 10.1211 9.6296 9.29877C9.6296 8.47643 8.9 8.00341 8.37891 8.00341ZM5.8 4.36903V6.69577H8.17969C8.53906 6.69577 9.27734 6.35939 9.27734 5.50002C9.27734 4.64064 8.48047 4.36903 8.17969 4.36903H5.8Z" fill="currentColor"></path>
    </symbol>
    <symbol viewBox="0 0 15 15" id="paragraph" height="100%" width="100%">
        <path d="M3 5.5C3 7.983 4.99169 9 7 9V12.5C7 12.7761 7.22386 13 7.5 13C7.77614 13 8 12.7761 8 12.5V9V3.1H9V12.5C9 12.7761 9.22386 13 9.5 13C9.77614 13 10 12.7761 10 12.5V3.1H11.5C11.8038 3.1 12.05 2.85376 12.05 2.55C12.05 2.24624 11.8038 2 11.5 2H9.5H8H7.5H7C4.99169 2 3 3.017 3 5.5Z" fill="currentColor" fill-rule="evenodd" clip-rule="evenodd"></path>
    </symbol>
    <symbol viewBox="0 0 15 15" id="heading" height="100%" width="100%">
        <path d="M8.75432 2.0502C8.50579 2.0502 8.30432 2.25167 8.30432 2.5002C8.30432 2.74873 8.50579 2.9502 8.75432 2.9502H9.94997V7.05004H5.04997V2.9502H6.25432C6.50285 2.9502 6.70432 2.74873 6.70432 2.5002C6.70432 2.25167 6.50285 2.0502 6.25432 2.0502H2.75432C2.50579 2.0502 2.30432 2.25167 2.30432 2.5002C2.30432 2.74873 2.50579 2.9502 2.75432 2.9502H3.94997V12.0502H2.75432C2.50579 12.0502 2.30432 12.2517 2.30432 12.5002C2.30432 12.7487 2.50579 12.9502 2.75432 12.9502H6.25432C6.50285 12.9502 6.70432 12.7487 6.70432 12.5002C6.70432 12.2517 6.50285 12.0502 6.25432 12.0502H5.04997V7.95004H9.94997V12.0502H8.75432C8.50579 12.0502 8.30432 12.2517 8.30432 12.5002C8.30432 12.7487 8.50579 12.9502 8.75432 12.9502H12.2543C12.5028 12.9502 12.7043 12.7487 12.7043 12.5002C12.7043 12.2517 12.5028 12.0502 12.2543 12.0502H11.05V2.9502H12.2543C12.5028 2.9502 12.7043 2.74873 12.7043 2.5002C12.7043 2.25167 12.5028 2.0502 12.2543 2.0502H8.75432Z" fill="currentColor" fill-rule="evenodd" clip-rule="evenodd"></path>
    </symbol>
    <symbol viewBox="0 0 15 15" id="list-bullet" height="100%" width="100%">
        <path d="M1.5 5.25C1.91421 5.25 2.25 4.91421 2.25 4.5C2.25 4.08579 1.91421 3.75 1.5 3.75C1.08579 3.75 0.75 4.08579 0.75 4.5C0.75 4.91421 1.08579 5.25 1.5 5.25ZM4 4.5C4 4.22386 4.22386 4 4.5 4H13.5C13.7761 4 14 4.22386 14 4.5C14 4.77614 13.7761 5 13.5 5H4.5C4.22386 5 4 4.77614 4 4.5ZM4.5 7C4.22386 7 4 7.22386 4 7.5C4 7.77614 4.22386 8 4.5 8H13.5C13.7761 8 14 7.77614 14 7.5C14 7.22386 13.7761 7 13.5 7H4.5ZM4.5 10C4.22386 10 4 10.2239 4 10.5C4 10.7761 4.22386 11 4.5 11H13.5C13.7761 11 14 10.7761 14 10.5C14 10.2239 13.7761 10 13.5 10H4.5ZM2.25 7.5C2.25 7.91421 1.91421 8.25 1.5 8.25C1.08579 8.25 0.75 7.91421 0.75 7.5C0.75 7.08579 1.08579 6.75 1.5 6.75C1.91421 6.75 2.25 7.08579 2.25 7.5ZM1.5 11.25C1.91421 11.25 2.25 10.9142 2.25 10.5C2.25 10.0858 1.91421 9.75 1.5 9.75C1.08579 9.75 0.75 10.0858 0.75 10.5C0.75 10.9142 1.08579 11.25 1.5 11.25Z" fill="currentColor" fill-rule="evenodd" clip-rule="evenodd"></path>
    </symbol>
    <symbol viewBox="0 0 15 15" id="quote" height="100%" width="100%">
        <path d="M9.42503 3.44136C10.0561 3.23654 10.7837 3.2402 11.3792 3.54623C12.7532 4.25224 13.3477 6.07191 12.7946 8C12.5465 8.8649 12.1102 9.70472 11.1861 10.5524C10.262 11.4 8.98034 11.9 8.38571 11.9C8.17269 11.9 8 11.7321 8 11.525C8 11.3179 8.17644 11.15 8.38571 11.15C9.06497 11.15 9.67189 10.7804 10.3906 10.236C10.9406 9.8193 11.3701 9.28633 11.608 8.82191C12.0628 7.93367 12.0782 6.68174 11.3433 6.34901C10.9904 6.73455 10.5295 6.95946 9.97725 6.95946C8.7773 6.95946 8.0701 5.99412 8.10051 5.12009C8.12957 4.28474 8.66032 3.68954 9.42503 3.44136ZM3.42503 3.44136C4.05614 3.23654 4.78366 3.2402 5.37923 3.54623C6.7532 4.25224 7.34766 6.07191 6.79462 8C6.54654 8.8649 6.11019 9.70472 5.1861 10.5524C4.26201 11.4 2.98034 11.9 2.38571 11.9C2.17269 11.9 2 11.7321 2 11.525C2 11.3179 2.17644 11.15 2.38571 11.15C3.06497 11.15 3.67189 10.7804 4.39058 10.236C4.94065 9.8193 5.37014 9.28633 5.60797 8.82191C6.06282 7.93367 6.07821 6.68174 5.3433 6.34901C4.99037 6.73455 4.52948 6.95946 3.97725 6.95946C2.7773 6.95946 2.0701 5.99412 2.10051 5.12009C2.12957 4.28474 2.66032 3.68954 3.42503 3.44136Z" fill="currentColor" fill-rule="evenodd" clip-rule="evenodd"></path>
    </symbol>
    <symbol viewBox="0 0 15 15" id="code" height="100%" width="100%">
        <path d="M9.96424 2.68571C10.0668 2.42931 9.94209 2.13833 9.6857 2.03577C9.4293 1.93322 9.13832 2.05792 9.03576 2.31432L5.03576 12.3143C4.9332 12.5707 5.05791 12.8617 5.3143 12.9642C5.5707 13.0668 5.86168 12.9421 5.96424 12.6857L9.96424 2.68571ZM3.85355 5.14646C4.04882 5.34172 4.04882 5.6583 3.85355 5.85356L2.20711 7.50001L3.85355 9.14646C4.04882 9.34172 4.04882 9.6583 3.85355 9.85356C3.65829 10.0488 3.34171 10.0488 3.14645 9.85356L1.14645 7.85356C0.951184 7.6583 0.951184 7.34172 1.14645 7.14646L3.14645 5.14646C3.34171 4.9512 3.65829 4.9512 3.85355 5.14646ZM11.1464 5.14646C11.3417 4.9512 11.6583 4.9512 11.8536 5.14646L13.8536 7.14646C14.0488 7.34172 14.0488 7.6583 13.8536 7.85356L11.8536 9.85356C11.6583 10.0488 11.3417 10.0488 11.1464 9.85356C10.9512 9.6583 10.9512 9.34172 11.1464 9.14646L12.7929 7.50001L11.1464 5.85356C10.9512 5.6583 10.9512 5.34172 11.1464 5.14646Z" fill="currentColor" fill-rule="evenodd" clip-rule="evenodd"></path>
    </symbol>
    <symbol viewBox="0 0 15 15" id="link" height="100%" width="100%">
        <path d="M4.62471 4.00001L4.56402 4.00001C4.04134 3.99993 3.70687 3.99988 3.4182 4.055C2.2379 4.28039 1.29846 5.17053 1.05815 6.33035C0.999538 6.61321 0.999604 6.93998 0.999703 7.43689L0.999711 7.50001L0.999703 7.56313C0.999604 8.06004 0.999538 8.38681 1.05815 8.66967C1.29846 9.8295 2.2379 10.7196 3.4182 10.945C3.70688 11.0001 4.04135 11.0001 4.56403 11L4.62471 11H5.49971C5.77585 11 5.99971 10.7762 5.99971 10.5C5.99971 10.2239 5.77585 10 5.49971 10H4.62471C4.02084 10 3.78907 9.99777 3.60577 9.96277C2.80262 9.8094 2.19157 9.21108 2.03735 8.46678C2.00233 8.29778 1.99971 8.08251 1.99971 7.50001C1.99971 6.91752 2.00233 6.70225 2.03735 6.53324C2.19157 5.78895 2.80262 5.19062 3.60577 5.03725C3.78907 5.00225 4.02084 5.00001 4.62471 5.00001H5.49971C5.77585 5.00001 5.99971 4.77615 5.99971 4.50001C5.99971 4.22387 5.77585 4.00001 5.49971 4.00001H4.62471ZM10.3747 5.00001C10.9786 5.00001 11.2104 5.00225 11.3937 5.03725C12.1968 5.19062 12.8079 5.78895 12.9621 6.53324C12.9971 6.70225 12.9997 6.91752 12.9997 7.50001C12.9997 8.08251 12.9971 8.29778 12.9621 8.46678C12.8079 9.21108 12.1968 9.8094 11.3937 9.96277C11.2104 9.99777 10.9786 10 10.3747 10H9.49971C9.22357 10 8.99971 10.2239 8.99971 10.5C8.99971 10.7762 9.22357 11 9.49971 11H10.3747L10.4354 11C10.9581 11.0001 11.2925 11.0001 11.5812 10.945C12.7615 10.7196 13.701 9.8295 13.9413 8.66967C13.9999 8.38681 13.9998 8.06005 13.9997 7.56314L13.9997 7.50001L13.9997 7.43688C13.9998 6.93998 13.9999 6.61321 13.9413 6.33035C13.701 5.17053 12.7615 4.28039 11.5812 4.055C11.2925 3.99988 10.9581 3.99993 10.4354 4.00001L10.3747 4.00001H9.49971C9.22357 4.00001 8.99971 4.22387 8.99971 4.50001C8.99971 4.77615 9.22357 5.00001 9.49971 5.00001H10.3747ZM5.00038 7C4.72424 7 4.50038 7.22386 4.50038 7.5C4.50038 7.77614 4.72424 8 5.00038 8H10.0004C10.2765 8 10.5004 7.77614 10.5004 7.5C10.5004 7.22386 10.2765 7 10.0004 7H5.00038Z" fill="currentColor" fill-rule="evenodd" clip-rule="evenodd"></path>
    </symbol>
    <symbol viewBox="0 0 15 15" id="pencil" height="100%" width="100%">
        <path d="M11.8536 1.14645C11.6583 0.951184 11.3417 0.951184 11.1465 1.14645L3.71455 8.57836C3.62459 8.66832 3.55263 8.77461 3.50251 8.89155L2.04044 12.303C1.9599 12.491 2.00189 12.709 2.14646 12.8536C2.29103 12.9981 2.50905 13.0401 2.69697 12.9596L6.10847 11.4975C6.2254 11.4474 6.3317 11.3754 6.42166 11.2855L13.8536 3.85355C14.0488 3.65829 14.0488 3.34171 13.8536 3.14645L11.8536 1.14645ZM4.42166 9.28547L11.5 2.20711L12.7929 3.5L5.71455 10.5784L4.21924 11.2192L3.78081 10.7808L4.42166 9.28547Z" fill="currentColor" fill-rule="evenodd" clip-rule="evenodd"></path>
    </symbol>
  </defs>
</svg>

